<svg width="265" height="150" viewBox="0 0 265 150" fill="none" xmlns="http://www.w3.org/2000/svg">
<path d="M220.291 56.6787H210.766V47.9629H220.291V56.6787Z" fill="black"/>
<path d="M220.291 102.061H210.766V64.1922H220.291V102.061Z" fill="black"/>
<path d="M78.9075 101.761C75.3358 102.662 71.7639 102.963 68.1923 102.963C55.3933 102.963 47.0593 96.952 47.0593 82.8266C47.0593 69.302 55.691 63.5916 67.8946 63.5916C71.4664 63.5916 75.0381 63.8922 78.6098 64.4933V71.1052C78.1879 71.0578 77.7807 71.0105 77.3849 70.9644L77.2769 70.9519C75.2061 70.7104 73.4382 70.5042 71.4662 70.5042C61.6439 70.5042 56.8816 73.5096 56.8816 83.4276C56.8816 92.7445 61.3462 96.0504 71.4662 96.0504C73.8996 96.0504 75.8416 95.8025 77.9617 95.5319L78.1047 95.5136C78.2718 95.4923 78.4401 95.4708 78.6098 95.4494V101.761H78.9075Z" fill="black"/>
<path fill-rule="evenodd" clip-rule="evenodd" d="M203.026 101.159C202.908 101.179 202.769 101.203 202.611 101.23L202.61 101.23C200.372 101.614 194.258 102.662 188.144 102.662C175.941 102.662 167.011 96.9517 167.011 83.1267C167.011 69.9026 175.048 63.2907 187.251 63.2907C188.185 63.2907 189.443 63.3728 190.644 63.4511L190.646 63.4512C191.743 63.5228 192.792 63.5912 193.502 63.5912V47.9629H203.026V101.159ZM191.845 70.6858L191.837 70.6852C190.815 70.6011 189.628 70.5037 188.442 70.5037C179.81 70.5037 176.536 74.7113 176.536 83.4273C176.536 91.2414 179.512 96.0501 188.144 96.0501C189.703 96.0501 191.262 95.8211 193.018 95.563L193.019 95.5628L193.024 95.5621C193.278 95.5247 193.537 95.487 193.799 95.4491V70.8043C193.289 70.8043 192.614 70.7489 191.845 70.6858Z" fill="black"/>
<path d="M151.534 102.061V77.1161C151.534 72.9084 149.748 70.5042 143.795 70.5042C139.628 70.5042 135.163 71.4058 135.163 71.4058V102.061H125.936V65.3949C126.071 65.3949 126.794 65.3014 127.909 65.1569C131.691 64.6671 139.996 63.5916 145.283 63.5916C153.617 63.5916 161.058 65.0943 161.058 76.5151V102.061H151.534Z" fill="black"/>
<path fill-rule="evenodd" clip-rule="evenodd" d="M118.197 102.061C111.649 102.662 106.589 102.962 100.933 102.962C91.4086 102.962 83.6698 101.46 83.6698 90.6401C83.6698 80.1209 93.1947 79.5199 101.826 79.2193H108.672C108.672 72.6074 108.375 70.203 98.8499 70.203C94.0876 70.203 89.0276 71.1046 86.0511 71.7058V64.7932C89.1894 64.001 93.9364 63.6728 97.8691 63.401L97.8896 63.3995L97.8915 63.3994C98.4266 63.3624 98.9466 63.3265 99.4453 63.2905C110.161 63.2905 118.197 64.4927 118.197 75.9133V102.061ZM108.672 96.3504V85.5308H102.422C96.7663 85.5308 93.1947 85.8314 93.1947 91.2411C93.1947 96.651 97.6593 96.9514 102.124 96.9514C103.397 96.8088 104.401 96.7337 105.359 96.6622L105.361 96.662C106.42 96.583 107.423 96.5081 108.672 96.3504Z" fill="black"/>
<path d="M258.091 101.761C254.52 102.662 250.948 102.963 247.375 102.963C234.577 102.963 226.243 96.952 226.243 82.8266C226.243 69.302 234.876 63.5916 247.079 63.5916C250.651 63.5916 254.222 63.8922 257.794 64.4933V71.1052C257.402 71.0613 257.024 71.0173 256.655 70.9745L256.462 70.9521C254.391 70.7103 252.624 70.5042 250.651 70.5042C240.828 70.5042 236.066 73.5096 236.066 83.4276C236.066 92.7445 240.531 96.0504 250.651 96.0504C253.084 96.0504 255.026 95.8025 257.145 95.5319L257.149 95.5313L257.419 95.497C257.543 95.4811 257.668 95.4652 257.794 95.4494V101.761H258.091Z" fill="black"/>
<path d="M42.2968 87.0337C42.2968 98.1539 33.6651 102.963 20.8662 102.963C12.532 102.963 6.57907 101.46 5.68612 101.159V93.3452C6.09447 93.4277 6.56446 93.5271 7.0853 93.6373L7.08676 93.6376C10.3625 94.3306 15.6489 95.449 20.2709 95.449C25.6286 95.449 32.4745 94.2468 32.4745 88.2359C32.4745 84.3288 29.498 82.826 24.1403 81.3234L17.8897 79.5202C10.7461 77.4163 5.09082 74.4109 5.09082 65.9956C5.09082 53.9738 14.6156 50.9684 25.6286 50.9684C32.1768 50.9684 37.5345 52.1705 38.4274 52.4711V59.6842C37.2368 59.3836 32.1768 58.1814 26.5215 58.1814C21.1638 58.1814 14.9132 58.7825 14.9132 64.7934C14.9132 69.3016 18.485 70.5038 23.5451 71.7059C24.7355 72.1567 25.9261 72.4573 27.1168 72.7579L27.1213 72.759C28.3104 73.0592 29.4995 73.3594 30.6886 73.8097C36.9391 75.6131 42.2968 78.6186 42.2968 87.0337Z" fill="black"/>
</svg>
